<svg width="50" height="50" viewBox="0 0 50 50" fill="none" xmlns="http://www.w3.org/2000/svg">
  <path
    d="M25 0C11.1937 0 0 11.1937 0 25C0 38.8062 11.1937 50 25 50C38.8062 50 50 38.8062 50 25C50 11.1937 38.8062 0 25 0ZM38.4667 19.8646C38.4792 20.1417 38.4854 20.4167 38.4854 20.6917C38.4854 29.1667 32.0375 38.9333 20.2437 38.9333C16.6208 38.9333 13.2521 37.8729 10.4167 36.0521C10.9187 36.1125 11.4292 36.1396 11.9479 36.1396C14.9542 36.1396 17.7167 35.1167 19.9083 33.3937C17.1021 33.3417 14.7333 31.4875 13.9187 28.9417C14.3104 29.0167 14.7125 29.0562 15.125 29.0562C15.7104 29.0562 16.2792 28.9771 16.8146 28.8313C13.8812 28.2438 11.6708 25.6521 11.6708 22.5458C11.6708 22.5187 11.6708 22.4917 11.6708 22.4646C12.5354 22.9458 13.5229 23.2333 14.575 23.2667C12.8563 22.1187 11.7229 20.1542 11.7229 17.9313C11.7229 16.7542 12.0375 15.6521 12.5896 14.7083C15.7521 18.5875 20.4771 21.1417 25.8042 21.4083C25.6958 20.9396 25.6396 20.45 25.6396 19.9479C25.6396 16.4083 28.5104 13.5354 32.05 13.5354C33.8938 13.5354 35.5604 14.3146 36.7292 15.5604C38.1896 15.2708 39.5625 14.7396 40.8021 14.0042C40.3229 15.5021 39.3063 16.7562 37.9813 17.5521C39.2771 17.3979 40.5125 17.0542 41.6646 16.5437C40.8083 17.8312 39.7229 18.9583 38.4667 19.8646Z"
    fill="hsl(223, 87%, 63%)" />
</svg>